<?xml version="1.0" standalone="no"?>
<!DOCTYPE svg PUBLIC "-//W3C//DTD SVG 20010904//EN"
 "http://www.w3.org/TR/2001/REC-SVG-20010904/DTD/svg10.dtd">
<svg version="1.0" xmlns="http://www.w3.org/2000/svg"
 width="641.000000pt" height="641.000000pt" viewBox="0 0 641.000000 641.000000"
 preserveAspectRatio="xMidYMid meet">
<metadata>
Created by potrace 1.14, written by Peter Selinger 2001-2017
</metadata>
<g transform="translate(0.000000,641.000000) scale(0.100000,-0.100000)"
fill="#000000" stroke="none">
<path d="M523 5059 c-15 -5 -83 -171 -86 -206 0 -7 -4 -13 -9 -13 -4 0 -7 -3
-6 -7 2 -10 -13 -58 -45 -145 -14 -36 -23 -69 -19 -72 3 -3 -1 -6 -8 -6 -7 0
-11 -3 -7 -6 3 -3 -3 -26 -13 -50 -11 -24 -17 -44 -13 -44 3 0 1 -6 -5 -12 -6
-7 -10 -15 -10 -18 -1 -3 -5 -18 -11 -33 -6 -16 -11 -33 -11 -38 0 -5 -4 -17
-9 -27 -10 -19 -22 -49 -28 -72 -6 -24 -9 -33 -20 -60 -13 -32 -64 -172 -67
-185 -2 -5 -6 -17 -9 -25 -4 -8 -15 -41 -26 -73 -22 -69 -18 -73 74 -71 65 2
98 11 89 25 -3 5 0 9 7 9 7 0 10 3 6 6 -3 3 1 23 8 45 8 21 12 39 10 39 -2 0
6 19 18 43 l22 42 123 0 c67 0 122 4 122 8 0 5 6 5 13 0 6 -4 20 -6 31 -4 28
4 62 -7 64 -21 1 -7 4 -38 6 -68 3 -30 5 -55 6 -55 1 0 4 -13 6 -30 3 -16 7
-32 9 -34 9 -8 157 -3 166 6 6 6 6 28 -1 59 -6 27 -12 65 -15 84 -3 19 -7 46
-9 60 -2 14 -7 46 -10 72 -8 59 -16 115 -22 142 -3 11 -7 35 -9 51 -4 29 -7
50 -20 140 -3 22 -8 50 -10 63 -3 12 -8 34 -11 50 -3 15 -7 45 -9 67 -2 22 -4
40 -5 40 -2 0 -9 43 -15 95 -2 19 -4 35 -5 35 -2 0 -8 35 -14 80 -8 61 -17
109 -23 115 -6 7 -181 6 -200 -1z m76 -296 c-1 -5 0 -10 1 -13 1 -3 4 -18 6
-35 3 -16 11 -68 19 -113 8 -46 14 -87 13 -90 -1 -4 2 -23 6 -42 14 -72 15
-109 3 -117 -9 -7 -162 -10 -199 -4 -7 1 -6 10 10 66 6 22 12 45 13 50 1 6 8
24 15 41 7 17 10 34 7 38 -4 3 -1 6 5 6 7 0 12 6 12 14 0 8 9 36 20 62 11 26
22 55 23 65 2 10 6 22 10 25 4 4 7 15 7 25 0 14 7 22 28 28 1 1 1 -2 1 -6z"/>
<path d="M1113 5062 c-17 -3 -23 -10 -24 -30 0 -15 -2 -36 -4 -47 -2 -11 -7
-55 -10 -97 -3 -43 -8 -86 -10 -97 -2 -11 -7 -57 -11 -103 -10 -122 -12 -143
-14 -143 -1 0 -4 -31 -15 -165 -2 -19 -4 -35 -4 -35 -1 0 -4 -25 -6 -55 -3
-30 -7 -77 -10 -105 -3 -27 -8 -70 -10 -95 -2 -25 -6 -69 -9 -97 -2 -29 -7
-57 -10 -62 -13 -20 32 -37 94 -34 34 1 64 4 66 6 3 3 11 73 18 159 1 15 5 30
9 34 3 4 2 15 -4 25 -5 11 -6 19 -2 19 4 0 8 17 9 38 1 20 4 66 8 102 15 140
23 219 32 320 2 30 6 64 8 75 3 11 5 26 5 34 1 19 10 9 16 -18 3 -11 7 -31 10
-43 5 -23 9 -44 20 -123 3 -22 8 -51 11 -65 3 -14 7 -36 9 -50 5 -31 14 -87
21 -120 8 -44 13 -74 19 -125 4 -27 9 -57 11 -65 3 -8 8 -33 10 -55 5 -43 11
-80 14 -80 1 0 3 -12 4 -27 0 -14 4 -29 8 -33 10 -10 107 -10 118 1 10 11 70
164 64 164 -2 0 4 17 15 38 10 20 19 39 18 42 0 5 53 150 72 195 17 39 60 160
63 175 2 8 5 17 8 20 5 5 29 65 34 85 6 25 36 85 42 85 7 0 -5 -168 -21 -280
-2 -19 -7 -60 -10 -90 -7 -79 -16 -179 -20 -220 -3 -31 -8 -84 -20 -187 -4
-30 -1 -33 23 -34 46 -2 126 2 131 7 5 5 7 17 16 124 3 41 8 91 10 110 4 35
10 88 20 190 3 30 8 73 10 95 10 76 16 140 20 213 2 41 7 95 10 120 3 26 8 67
10 92 9 92 16 148 19 167 8 41 -7 47 -121 46 -59 0 -115 -1 -124 -2 -10 -1
-23 -20 -33 -48 -10 -27 -20 -55 -23 -63 -4 -8 -7 -17 -7 -20 -1 -4 -28 -80
-43 -120 -3 -8 -7 -19 -9 -25 -1 -5 -8 -23 -15 -40 -6 -16 -13 -34 -15 -40
-14 -50 -60 -171 -66 -173 -5 -2 -6 -8 -3 -13 3 -4 -3 -25 -14 -46 -10 -21
-19 -41 -19 -46 -1 -27 -15 -67 -27 -77 -16 -13 -25 -2 -30 38 -2 15 -6 44 -9
64 -3 21 -8 53 -11 70 -3 18 -7 49 -10 68 -2 19 -9 52 -14 72 -5 20 -7 39 -4
42 3 2 0 14 -7 25 -7 15 -7 21 0 21 8 0 8 6 0 20 -6 10 -12 41 -15 67 -2 26
-7 59 -10 73 -3 14 -7 41 -10 60 -7 53 -14 82 -20 88 -6 6 -195 9 -232 4z"/>
<path d="M2157 5062 c-17 -3 -23 -26 -32 -122 -11 -118 -14 -147 -20 -210 -4
-36 -8 -78 -10 -95 -1 -16 -6 -64 -10 -105 -4 -41 -9 -93 -11 -115 -1 -22 -5
-60 -8 -85 -14 -134 -17 -168 -21 -195 -2 -16 -7 -70 -10 -120 -4 -49 -9 -93
-11 -97 -11 -17 38 -21 300 -19 329 2 306 0 307 20 1 9 3 30 5 46 2 17 6 69
10 116 6 79 5 87 -12 92 -11 3 -105 5 -211 5 -105 0 -195 2 -201 6 -5 3 -8 20
-6 38 11 106 16 133 23 138 5 3 97 5 205 4 l195 -1 5 26 c3 14 8 62 12 106 3
44 8 83 10 86 8 13 -23 15 -213 13 -206 -2 -199 -3 -195 46 7 75 15 136 18
139 2 2 98 5 213 5 115 1 212 4 215 6 5 5 15 94 20 181 1 25 5 50 9 55 3 6 2
16 -3 24 -6 10 -63 13 -282 14 -151 1 -282 0 -291 -2z"/>
<path d="M2893 5062 c-13 -2 -24 -11 -24 -20 -1 -9 -3 -28 -4 -42 -13 -142
-17 -181 -21 -215 -3 -22 -7 -65 -10 -95 -2 -30 -7 -66 -9 -80 -4 -25 -11 -92
-20 -210 -5 -61 -8 -90 -21 -230 -3 -30 -7 -71 -10 -90 -11 -86 -12 -170 -2
-176 12 -7 137 -8 144 -1 5 5 18 137 19 195 0 17 3 32 6 32 3 0 4 14 3 30 -1
20 4 33 14 38 10 4 77 7 150 7 142 -2 158 -7 167 -54 2 -13 6 -26 9 -28 3 -3
1 -15 -4 -27 -4 -13 -4 -29 0 -36 5 -8 6 -19 2 -25 -7 -12 -9 -19 -15 -86 -6
-55 -10 -52 83 -50 64 2 81 10 79 41 -1 8 0 17 1 20 5 13 10 64 14 150 5 103
-7 170 -36 212 -10 14 -18 29 -18 32 0 6 31 44 58 72 7 7 12 15 12 16 -1 2 4
17 11 33 6 17 13 37 15 45 3 21 15 116 19 165 6 66 7 239 1 255 -3 8 -7 27
-10 42 -5 29 -51 77 -76 78 -41 3 -508 5 -527 2z m430 -293 c37 -34 23 -208
-21 -252 -18 -18 -34 -20 -166 -21 -162 -1 -163 -1 -152 66 2 18 7 65 11 103
8 88 9 98 17 110 4 6 65 10 150 10 118 0 146 -3 161 -16z"/>
<path d="M3688 5063 c-10 -3 -19 -10 -19 -16 -1 -7 -3 -21 -4 -32 -4 -25 -17
-157 -20 -205 -2 -19 -4 -35 -5 -35 -1 0 -3 -19 -5 -43 -2 -23 -6 -66 -9 -95
-7 -62 -16 -153 -21 -222 -2 -27 -6 -72 -10 -98 -4 -27 -8 -74 -10 -105 -2
-31 -5 -57 -5 -57 -3 0 -6 -34 -14 -125 -3 -41 -8 -85 -11 -98 -5 -28 4 -32
80 -35 77 -4 86 6 91 114 2 46 6 98 8 114 3 17 8 66 11 110 4 44 12 86 17 93
7 8 7 12 -1 12 -7 0 -10 4 -7 9 6 8 12 61 22 171 2 30 7 82 11 115 4 33 7 81
7 107 1 27 3 48 7 48 3 0 5 10 6 23 0 31 11 162 13 162 1 0 3 19 4 43 2 36 -1
43 -18 46 -25 5 -94 4 -118 -1z"/>
<path d="M4132 5057 c-136 -22 -207 -189 -227 -532 -2 -27 -4 -50 -5 -50 -3 0
-8 -67 -16 -190 -7 -124 -7 -122 -1 -190 11 -112 56 -178 130 -190 21 -4 121
-7 220 -7 202 0 239 9 276 60 30 42 42 76 57 156 2 16 7 32 9 36 2 4 7 34 10
66 4 32 8 71 9 87 4 36 -5 41 -85 41 l-67 1 -10 -32 c-7 -24 -7 -33 1 -33 9 0
9 -2 1 -8 -6 -4 -14 -19 -18 -34 -12 -51 -43 -61 -187 -61 -127 0 -131 0 -154
26 -23 24 -24 30 -20 144 4 114 6 141 19 248 14 120 35 172 75 182 34 9 277
10 286 1 14 -14 33 -83 25 -92 -29 -30 109 -58 149 -30 18 13 21 45 23 209 1
33 -14 112 -25 133 -6 14 -25 35 -40 46 -26 19 -42 21 -206 21 -97 0 -201 -4
-229 -8z"/>
<path d="M5028 5062 c-9 -2 -22 -22 -29 -48 -7 -24 -16 -44 -19 -44 -3 0 -6
-10 -7 -22 -1 -13 -14 -58 -31 -100 -16 -42 -27 -80 -24 -83 3 -3 0 -5 -7 -5
-6 0 -11 -6 -10 -12 1 -7 -3 -25 -9 -39 -6 -15 -12 -35 -14 -45 -2 -11 -5 -21
-8 -24 -3 -3 -13 -30 -23 -60 -10 -30 -23 -64 -27 -75 -5 -11 -18 -49 -30 -85
-12 -36 -25 -74 -30 -85 -10 -24 -24 -69 -21 -73 1 -1 -6 -16 -14 -32 -8 -16
-16 -33 -16 -37 -1 -5 -5 -18 -10 -31 -5 -13 -9 -29 -9 -37 0 -8 -5 -17 -11
-20 -6 -4 -8 -13 -5 -21 3 -8 2 -14 -3 -14 -6 0 -32 -67 -32 -85 0 -2 -6 -20
-14 -39 -10 -24 -12 -37 -4 -42 10 -6 120 -9 144 -4 6 1 13 2 16 2 3 -1 22 45
41 101 l34 102 141 1 c78 1 148 4 157 7 9 4 16 2 16 -4 0 -6 4 -8 8 -5 15 9
36 -13 38 -41 2 -15 6 -46 9 -68 4 -22 7 -52 8 -67 0 -15 4 -25 8 -22 4 2 10
1 13 -4 5 -8 130 -6 153 3 6 2 10 14 8 27 -2 13 -7 37 -10 53 -3 17 -10 57
-15 90 -5 33 -12 71 -15 85 -2 14 -7 44 -9 65 -3 22 -7 51 -10 65 -2 14 -7 45
-10 70 -6 43 -10 68 -21 135 -3 17 -8 46 -10 65 -3 19 -8 46 -11 60 -3 14 -7
36 -9 50 -8 51 -15 96 -19 120 -3 14 -7 47 -11 74 -3 27 -8 53 -10 57 -3 4 -6
28 -7 53 0 26 -5 49 -9 52 -5 2 -6 11 -2 19 3 11 -2 15 -18 16 -61 3 -177 4
-191 1z m84 -333 c4 -19 5 -40 3 -46 -2 -7 -1 -13 4 -13 4 0 8 -6 8 -12 3 -58
8 -98 12 -98 4 0 7 -17 8 -38 1 -34 8 -84 18 -140 3 -16 -2 -25 -16 -30 -16
-6 -95 -6 -154 0 -5 0 -17 -1 -25 -3 -18 -5 -17 42 1 88 7 15 13 35 15 43 2 8
7 23 13 35 10 22 71 201 76 225 2 8 4 19 4 23 2 22 26 -3 33 -34z"/>
<path d="M5613 5057 c-3 -5 -7 -21 -8 -36 -2 -14 -6 -57 -10 -96 -5 -38 -9
-88 -11 -110 -1 -22 -3 -40 -4 -40 -1 0 -3 -18 -4 -40 -2 -22 -7 -69 -11 -105
-9 -83 -11 -99 -20 -195 -4 -44 -9 -100 -11 -125 -2 -25 -6 -69 -9 -98 -2 -28
-7 -57 -10 -62 -3 -6 -1 -10 5 -10 6 0 8 -5 3 -12 -9 -15 -9 -14 -17 -103 -4
-38 -9 -77 -11 -85 -8 -28 11 -41 61 -42 102 -2 102 -2 109 87 3 28 7 84 10
125 3 41 7 91 10 110 2 19 6 64 9 100 4 36 8 81 11 100 2 19 6 62 9 95 5 59
13 131 21 170 2 11 4 22 4 24 3 16 30 -39 31 -61 0 -15 5 -30 10 -33 6 -3 10
-19 10 -35 0 -16 5 -32 10 -35 6 -3 10 -19 10 -36 0 -16 4 -29 8 -29 4 0 9
-12 10 -26 1 -14 5 -31 9 -37 4 -7 8 -18 9 -27 5 -32 39 -160 51 -190 3 -8 5
-21 4 -27 -1 -7 3 -13 8 -13 6 0 8 -7 5 -15 -3 -8 -2 -20 2 -27 5 -7 9 -17 10
-23 1 -5 12 -44 23 -85 12 -41 23 -80 24 -87 2 -7 5 -15 8 -18 8 -7 218 -9
225 -2 3 3 12 3 20 0 9 -3 14 2 15 13 0 11 2 30 4 44 1 14 6 59 9 100 4 41 9
93 12 115 4 41 9 87 18 185 3 30 8 82 12 115 3 33 7 80 10 105 2 25 6 59 8 75
3 17 8 68 11 115 4 47 8 96 10 109 2 12 7 59 11 102 6 73 5 79 -12 80 -97 6
-135 5 -140 -3 -3 -5 -7 -26 -9 -46 -2 -20 -6 -62 -9 -92 -4 -30 -8 -86 -11
-124 -2 -37 -6 -71 -9 -74 -3 -3 -1 -11 5 -19 6 -7 7 -13 2 -13 -8 0 -10 -18
-16 -137 -1 -24 -4 -43 -7 -43 -3 0 -5 -15 -6 -33 -1 -39 -12 -152 -14 -152
-1 0 -3 -16 -5 -35 -5 -64 -5 -64 -15 -54 -5 5 -11 18 -13 29 -2 11 -7 27 -10
35 -16 40 -35 119 -30 124 4 3 2 6 -4 6 -5 0 -10 6 -11 13 0 6 -3 21 -6 32 -6
21 -24 90 -30 115 -18 69 -48 178 -53 190 -7 17 -9 26 -16 60 -5 24 -10 41
-23 78 -4 9 -8 24 -10 32 -5 25 -12 55 -14 55 -1 0 -4 11 -6 24 -2 14 -7 27
-9 29 -9 9 -246 8 -252 -1z"/>
<path d="M64 3525 c-13 -10 -19 -50 -30 -191 l-6 -81 113 1 114 1 -1 -40 c0
-22 -4 -74 -8 -115 -5 -41 -10 -95 -12 -120 -2 -25 -6 -74 -10 -110 -4 -36 -8
-75 -8 -87 0 -13 -2 -23 -5 -23 -4 0 -7 -19 -7 -43 -2 -55 -13 -182 -20 -232
-12 -77 -10 -105 6 -110 28 -9 80 -13 80 -6 0 4 15 5 33 3 23 -3 34 0 34 10 0
7 3 45 7 83 4 39 9 90 11 114 2 24 6 64 9 90 3 25 8 75 12 111 3 36 8 79 9 95
4 40 16 170 20 222 6 68 17 148 21 152 3 3 54 6 115 7 61 1 113 5 116 8 7 6
10 30 17 106 3 25 5 45 6 45 8 0 5 107 -4 113 -18 11 -597 9 -612 -3z"/>
<path d="M900 3527 c0 -4 -3 -6 -7 -4 -12 7 -57 -15 -89 -43 -40 -34 -75 -113
-89 -200 -3 -19 -8 -42 -11 -51 -6 -21 -12 -68 -19 -134 -2 -28 -7 -68 -11
-90 -13 -80 -14 -104 -19 -302 -3 -127 -1 -204 5 -208 6 -3 10 -13 10 -22 0
-24 40 -73 69 -85 49 -19 189 -25 376 -15 106 5 169 30 201 80 11 17 22 37 23
42 2 6 7 16 13 23 6 7 8 15 6 18 -3 3 1 26 8 51 8 26 12 49 9 51 -3 3 -1 10 4
16 5 6 12 38 15 71 9 100 16 158 21 190 6 38 18 182 18 218 1 15 5 27 10 27 5
0 4 6 -2 13 -6 8 -8 16 -6 19 10 9 12 108 3 108 -5 0 -4 8 1 19 6 10 7 21 4
25 -4 3 -8 23 -10 44 -2 20 -8 41 -14 47 -5 5 -9 17 -9 27 0 10 -4 18 -10 18
-5 0 -10 7 -10 16 0 8 -4 13 -9 10 -5 -4 -11 -1 -13 4 -2 6 -10 12 -18 13 -8
2 -19 5 -25 9 -15 9 -425 5 -425 -5z m331 -280 c37 -23 42 -88 24 -302 -6 -65
-14 -136 -19 -160 -12 -56 -21 -83 -33 -101 -15 -24 -84 -46 -103 -34 -7 4
-26 4 -44 1 -35 -8 -148 -6 -185 3 -14 3 -29 10 -35 16 -13 13 -14 191 -2 290
4 36 9 83 11 106 7 71 25 136 45 162 11 13 20 22 20 18 0 -4 6 -3 14 1 25 14
285 14 307 0z"/>
<path d="M1571 3525 c-5 -5 -8 -17 -8 -25 0 -21 -13 -146 -19 -173 -2 -12 -6
-53 -10 -92 -3 -38 -7 -83 -8 -100 -2 -16 -7 -66 -11 -110 -4 -44 -9 -89 -12
-100 -11 -46 -13 -392 -2 -425 26 -80 39 -100 78 -120 22 -11 42 -16 45 -11 3
5 21 6 38 2 18 -4 48 -4 66 0 18 3 35 3 38 -2 3 -5 9 -7 14 -4 16 10 70 12 76
4 3 -5 10 -7 15 -4 5 4 35 8 67 9 31 2 63 5 71 7 22 6 100 69 86 69 -4 0 -1 8
8 18 20 22 59 136 63 182 1 19 3 35 4 35 4 0 8 37 27 215 3 36 7 86 7 112 1
27 4 48 7 48 4 0 6 17 5 38 -2 20 0 41 3 46 2 6 6 30 8 55 1 25 5 69 8 96 5
49 12 113 19 185 1 19 1 40 -1 46 -4 11 -131 13 -149 2 -6 -4 -11 -26 -12 -48
-2 -47 -10 -99 -18 -112 -3 -4 0 -8 6 -8 6 0 8 -4 5 -10 -6 -10 -11 -44 -20
-130 -2 -25 -6 -70 -10 -100 -3 -30 -7 -75 -9 -100 -20 -209 -19 -204 -36
-275 -19 -74 -44 -97 -105 -95 -28 2 -32 1 -107 -3 -41 -3 -68 -1 -68 5 0 6
-6 8 -14 5 -8 -3 -22 4 -33 15 -15 17 -18 37 -17 132 0 125 9 244 17 253 4 3
2 14 -4 24 -5 11 -6 19 -1 19 5 0 9 6 9 13 0 17 13 146 18 177 6 41 17 162 19
205 l1 40 -73 0 c-40 1 -77 -4 -81 -10z"/>
<path d="M2390 3531 c-17 -7 -16 -4 -24 -96 -4 -38 -8 -86 -10 -105 -2 -19 -7
-66 -11 -105 -3 -38 -8 -83 -10 -100 -2 -16 -7 -61 -10 -100 -3 -38 -7 -86
-10 -105 -2 -19 -6 -66 -10 -103 -3 -37 -7 -82 -10 -100 -2 -18 -7 -59 -10
-92 -12 -136 -15 -172 -21 -203 -7 -43 9 -64 40 -52 13 4 28 5 35 1 13 -8 70
-5 80 4 6 7 9 24 15 105 11 126 17 183 21 190 8 12 280 9 298 -4 21 -16 33
-52 31 -96 -3 -76 -14 -181 -18 -189 -3 -4 11 -8 31 -9 20 -1 38 -4 40 -6 3
-3 15 -1 27 4 12 4 29 4 38 -1 27 -15 34 19 44 207 7 126 -2 180 -34 217 -18
20 -25 47 -12 47 14 0 66 80 78 120 23 71 35 200 36 355 0 134 -18 185 -72
207 -35 15 -522 17 -522 3 0 -6 -3 -5 -8 1 -4 6 -14 9 -22 5z m435 -288 c17
-10 20 -22 19 -90 -1 -105 -12 -147 -48 -173 -16 -12 -53 -15 -161 -16 -77 0
-143 3 -146 8 -13 20 15 268 32 278 17 11 284 5 304 -7z"/>
<path d="M3181 3531 c-12 -8 -21 -54 -26 -131 -4 -65 -12 -146 -21 -214 -4
-28 -8 -70 -10 -95 -2 -25 -7 -75 -10 -111 -4 -36 -7 -84 -8 -107 0 -24 -3
-43 -6 -43 -3 0 -6 -12 -6 -27 -1 -16 -4 -62 -8 -103 -3 -41 -9 -109 -12 -150
-3 -41 -8 -76 -12 -77 -8 -3 -7 -92 1 -100 5 -5 50 -6 129 -4 19 1 27 6 27 19
0 21 9 132 16 192 3 25 7 65 9 89 7 80 18 186 22 204 2 10 4 40 5 68 2 27 7
49 12 49 5 0 4 6 -2 13 -6 8 -9 16 -6 18 2 3 6 25 9 50 7 68 18 181 22 214 8
75 17 183 18 215 l1 35 -67 1 c-36 1 -71 -2 -77 -5z"/>
<path d="M3607 3534 c-1 -2 -16 -5 -32 -8 -16 -3 -41 -14 -55 -24 -26 -19 -77
-110 -84 -152 -3 -14 -5 -25 -6 -25 -1 0 -3 -16 -5 -35 -2 -19 -6 -53 -9 -75
-8 -56 -8 -234 -1 -268 8 -38 30 -72 62 -92 20 -13 57 -18 177 -21 162 -4 216
-10 229 -23 15 -15 15 -85 1 -117 -17 -35 -47 -52 -84 -47 -14 2 -29 3 -35 3
-5 0 -48 -1 -95 -2 -104 -2 -128 5 -136 40 -14 66 -17 76 -21 66 -2 -7 -26
-10 -61 -8 -31 2 -62 0 -69 -4 -7 -4 -14 -25 -17 -46 -3 -21 -7 -40 -10 -43
-2 -3 -1 -16 4 -29 5 -13 6 -24 2 -24 -14 0 4 -133 23 -170 26 -51 38 -55 182
-56 73 -1 136 -4 139 -7 4 -4 14 -2 23 2 21 11 24 11 61 1 16 -5 30 -5 30 -1
0 4 14 7 30 6 17 -1 30 2 30 7 0 4 8 8 18 8 27 0 82 58 106 115 26 59 48 155
50 219 0 25 3 46 6 46 3 0 6 34 5 75 0 41 -4 75 -9 75 -4 0 -6 6 -3 14 3 7 -3
27 -14 45 -10 17 -15 31 -11 31 4 0 -6 7 -21 15 -38 20 -89 26 -250 30 -155 4
-181 13 -189 64 -3 17 -2 33 0 36 3 3 7 17 8 32 2 15 8 29 14 31 5 2 10 10 10
18 0 9 4 13 9 9 5 -3 12 -2 14 3 7 11 265 8 276 -3 8 -9 20 -56 23 -92 1 -12
15 -15 73 -15 80 0 82 1 83 30 0 15 1 29 2 32 6 15 7 216 1 229 -50 105 -49
105 -284 106 -103 1 -189 0 -190 -1z"/>
<path d="M4183 3527 c-6 -9 -10 -43 -18 -142 -3 -33 -6 -72 -8 -87 -3 -16 1
-31 7 -36 6 -4 57 -7 114 -7 56 1 102 -3 103 -7 2 -13 1 -58 -1 -60 -1 -2 -3
-21 -4 -43 -2 -22 -6 -65 -10 -95 -3 -30 -9 -77 -11 -105 -3 -27 -7 -68 -10
-90 -5 -47 -18 -192 -19 -217 0 -10 -4 -18 -8 -18 -4 0 -3 -11 2 -24 5 -13 6
-27 2 -31 -4 -3 -8 -25 -9 -48 -1 -23 -2 -42 -3 -42 -1 0 -3 -24 -6 -52 -3
-49 -2 -53 19 -54 12 -1 31 -2 42 -3 11 0 30 2 43 6 14 5 21 4 17 -2 -4 -6 2
-7 17 -1 14 5 23 17 24 32 0 13 4 53 8 89 3 36 8 92 11 125 3 33 7 74 9 90 3
17 7 59 11 95 3 36 8 88 11 115 3 28 7 71 9 97 1 25 6 79 11 120 4 40 7 83 8
96 0 12 2 22 6 23 3 1 56 2 117 3 62 1 115 4 117 7 2 2 6 20 9 39 4 19 8 44
10 55 3 11 0 28 -4 37 -5 9 -5 19 -1 22 5 3 9 24 10 46 1 23 4 46 7 50 3 5 0
12 -7 17 -17 10 -618 10 -625 0z"/>
<path d="M4908 3529 c-6 -4 -8 -14 -5 -22 3 -8 3 -18 0 -21 -3 -3 -7 -25 -9
-48 -2 -42 -12 -144 -19 -203 -2 -16 -6 -59 -9 -95 -3 -36 -8 -76 -11 -90 -2
-14 -7 -56 -9 -95 -3 -38 -6 -70 -7 -70 -1 0 -3 -13 -4 -30 -2 -16 -6 -59 -9
-95 -3 -36 -8 -82 -11 -102 -3 -21 -7 -66 -10 -100 -2 -35 -5 -63 -5 -63 -1 0
-3 -28 -5 -62 l-4 -63 37 -1 c20 -1 40 -1 43 -1 23 3 150 2 176 -1 17 -2 29 1
27 5 -3 5 7 6 22 2 16 -4 35 -7 44 -6 35 3 103 2 107 -2 3 -2 17 -1 31 4 15 4
37 4 49 -1 12 -4 25 -4 28 1 3 4 13 6 23 3 11 -2 19 1 20 9 0 7 3 36 6 63 20
209 20 209 3 202 -9 -3 -19 -2 -22 3 -3 5 -15 6 -28 1 -12 -5 -31 -5 -42 -1
-11 4 -32 4 -47 -1 -17 -4 -28 -4 -28 2 0 6 -7 6 -17 1 -20 -9 -143 -9 -158 0
-9 5 -21 4 -50 -2 -30 -7 -33 1 -29 69 2 37 8 79 12 92 l9 23 189 -2 c104 -1
195 2 201 6 13 8 19 40 29 155 4 52 3 67 -8 68 -7 1 -96 1 -198 1 -120 0 -187
3 -191 10 -8 12 -1 106 10 153 l7 30 205 0 c112 0 209 4 216 8 6 4 10 20 9 37
-1 16 1 30 4 30 4 0 7 24 9 53 1 28 4 75 7 102 l4 50 -291 0 c-160 0 -296 -3
-301 -6z"/>
<path d="M5608 3523 c-6 -7 -8 -20 -4 -28 3 -8 2 -15 -2 -15 -4 0 -8 -12 -8
-27 -2 -46 -13 -164 -20 -228 -4 -33 -8 -81 -8 -107 -1 -27 -4 -48 -7 -48 -3
0 -6 -22 -8 -49 -1 -28 -4 -58 -5 -68 -2 -10 -7 -56 -11 -103 -3 -47 -8 -101
-10 -120 -6 -47 -18 -181 -19 -202 0 -10 -4 -18 -8 -18 -5 0 -4 -9 2 -20 6
-11 7 -20 3 -20 -12 0 -14 -88 -2 -95 14 -9 109 -12 109 -3 0 3 8 4 19 1 13
-3 20 2 24 19 6 24 18 154 22 224 1 22 4 45 8 51 4 7 56 10 146 9 186 -2 184
0 179 -153 -2 -62 -5 -113 -8 -113 -12 0 -5 -40 7 -44 7 -3 13 -1 13 4 0 5 6
7 13 4 28 -10 98 -11 112 0 37 27 43 382 7 405 -5 3 -15 16 -21 29 -11 20 -10
26 6 40 27 25 64 80 68 103 2 10 6 23 9 27 3 5 7 28 10 53 4 24 9 64 12 89 8
59 9 268 1 300 -3 14 -6 30 -6 37 -1 13 -56 67 -71 69 -6 1 -13 3 -17 4 -5 2
-124 3 -266 4 -195 1 -261 -2 -269 -11z m446 -283 c8 -8 17 -26 19 -40 3 -14
6 -29 7 -35 1 -5 2 -12 1 -15 -2 -6 -12 -88 -14 -107 0 -7 -4 -13 -9 -13 -5 0
-7 -4 -4 -8 6 -10 -2 -22 -28 -42 -14 -11 -53 -15 -162 -17 -158 -2 -158 -2
-148 62 2 17 7 62 9 100 3 39 7 79 10 90 2 11 4 25 4 30 1 7 53 11 151 10 118
0 153 -4 164 -15z"/>
<path d="M3755 1920 c-4 -6 -10 -8 -14 -5 -10 6 -41 -62 -46 -100 -4 -40 3
-54 26 -52 11 1 17 7 15 14 -3 7 -1 15 5 18 5 4 7 11 3 17 -4 6 3 8 17 6 20
-2 24 -10 27 -45 3 -37 0 -44 -20 -54 -20 -9 -23 -16 -20 -47 3 -21 13 -43 26
-53 24 -19 27 -70 6 -108 -11 -22 -12 -22 -31 -5 -10 9 -19 25 -19 34 0 22
-27 34 -37 17 -15 -24 -1 -98 26 -133 17 -21 64 -25 82 -7 17 17 37 84 35 119
-1 18 3 30 8 26 6 -3 6 3 2 14 -23 58 -25 136 -3 172 5 6 4 12 -1 12 -5 0 -9
8 -8 18 2 45 -16 103 -40 127 -28 28 -30 29 -39 15z"/>
<path d="M2424 1912 c-42 -7 -72 -122 -52 -202 5 -20 27 -55 48 -78 44 -50 52
-78 33 -123 -12 -29 -15 -31 -29 -17 -8 8 -16 21 -18 29 -1 8 -7 23 -14 34
-12 19 -12 20 -26 1 -27 -34 7 -140 50 -156 21 -9 31 -7 47 7 29 27 40 61 43
136 3 84 -6 110 -56 165 -42 45 -48 67 -27 96 12 16 14 16 31 -3 21 -23 46
-17 46 10 0 25 -32 98 -45 102 -5 1 -20 1 -31 -1z"/>
<path d="M2802 1903 c-5 -10 -8 -63 -7 -118 0 -55 -2 -108 -5 -119 -7 -21 -14
-11 -114 157 -16 26 -33 46 -38 45 -6 -2 -10 -82 -10 -203 1 -280 -1 -261 22
-262 22 -2 21 -7 24 146 1 59 5 86 14 89 7 2 11 0 10 -5 -1 -4 23 -50 55 -100
31 -51 57 -97 57 -101 0 -17 29 -8 33 10 3 10 2 18 -1 18 -4 0 -7 20 -7 45 0
25 4 45 8 45 5 0 5 5 1 12 -9 14 -9 242 0 256 3 6 2 13 -4 17 -5 3 -7 18 -4
33 7 36 -19 64 -34 35z"/>
<path d="M2974 1910 c-23 -9 -51 -46 -73 -95 -7 -16 -17 -38 -22 -47 -6 -12
-5 -18 2 -18 6 0 7 -5 2 -12 -4 -7 -8 -21 -9 -30 -1 -10 -2 -21 -4 -25 -7 -27
5 -128 21 -170 6 -15 10 -28 9 -28 -1 0 3 -11 8 -25 20 -49 80 -81 110 -57 6
5 12 6 12 2 0 -4 6 -2 14 4 8 7 13 34 14 74 l0 62 -21 -26 c-34 -40 -53 -42
-82 -8 -14 17 -25 34 -26 37 0 4 -3 18 -5 32 -19 104 7 213 54 231 22 8 29 6
49 -16 31 -32 36 -32 31 5 -3 17 -1 30 3 30 4 0 2 14 -4 31 -14 37 -53 60 -83
49z"/>
<path d="M3403 1911 c-6 -3 -12 -17 -15 -31 -3 -14 -9 -33 -13 -42 -5 -13 -2
-18 9 -18 27 0 31 -30 30 -222 0 -182 5 -210 33 -186 10 8 13 68 13 254 0 134
-3 244 -7 245 -5 0 -15 2 -24 4 -9 1 -21 0 -26 -4z"/>
<path d="M3530 1880 c-11 -21 -22 -50 -24 -62 -3 -13 -5 -25 -6 -28 -4 -11 -2
-68 4 -103 7 -43 20 -72 46 -99 16 -18 16 -22 -5 -81 -18 -47 -20 -67 -12 -84
6 -13 14 -23 18 -23 6 0 40 77 45 100 0 3 3 12 7 20 10 24 48 143 52 164 14
64 4 143 -26 195 -18 33 -28 41 -51 41 -22 0 -32 -8 -48 -40z m77 -77 c9 -22
9 -83 0 -106 -6 -17 -42 -24 -51 -9 -10 16 -13 88 -5 110 10 26 47 30 56 5z"/>
<path d="M3900 1878 c-24 -55 -25 -117 -1 -113 9 2 20 4 24 4 5 1 6 4 3 9 -2
4 1 18 8 31 12 22 14 22 30 6 28 -29 10 -104 -25 -105 -13 0 1 -75 16 -86 9
-6 18 -22 20 -34 2 -13 6 -25 9 -27 2 -3 0 -18 -6 -34 -14 -40 -51 -37 -56 4
-3 23 -8 28 -25 25 -18 -2 -22 -10 -22 -38 0 -83 59 -140 109 -104 11 8 17 14
12 14 -5 0 -2 7 5 16 7 9 15 23 17 33 8 34 9 142 1 146 -4 3 -6 27 -4 53 11
120 11 142 4 142 -4 0 -6 8 -5 17 2 10 -6 32 -17 50 -15 26 -26 33 -49 33 -25
0 -32 -6 -48 -42z"/>
<path d="M2547 1897 c-2 -7 -4 -120 -3 -252 1 -236 1 -240 22 -241 21 -1 21 1
21 245 0 233 -3 260 -28 261 -4 0 -9 -6 -12 -13z"/>
<path d="M3111 1900 c-5 -3 -8 -115 -7 -250 l1 -245 65 0 c61 0 65 2 68 24 2
12 1 34 -2 47 -5 20 -11 23 -46 19 l-40 -4 0 54 c0 74 5 84 41 78 17 -2 29 0
29 7 0 6 4 9 8 6 4 -2 8 14 7 37 0 42 0 42 -41 45 -34 2 -43 7 -46 26 -8 40 6
61 43 63 51 2 51 2 46 16 -2 6 0 22 4 34 5 13 4 25 -2 28 -5 4 -7 10 -5 14 5
8 -111 9 -123 1z"/>
<path d="M18 1676 c-2 -23 0 -52 5 -66 l7 -25 1078 0 c592 0 1082 4 1088 8 6
3 12 31 12 62 0 33 -5 56 -12 57 -6 0 -498 2 -1093 3 l-1082 1 -3 -40z"/>
<path d="M4163 1696 c-4 -12 -6 -25 -4 -31 2 -5 5 -23 6 -40 2 -16 3 -32 4
-35 2 -8 2154 -4 2171 4 11 4 15 22 15 64 l0 57 -1093 1 -1092 0 -7 -20z"/>
</g>
</svg>
